<svg class="logo" viewBox="0 0 139 21" xmlns="http://www.w3.org/2000/svg" xmlns:xlink="http://www.w3.org/1999/xlink"><defs><path id="a" d="M138.824 31.625V0H0v31.625h138.824z"/></defs><g transform="translate(0 -3)" fill="none" fill-rule="evenodd"><mask id="b" fill="#fff"><use xlink:href="#a"/></mask><path class="logo__cli" d="M91.32 17.28c-.073-.29-3.062-.62-3.1-.947-.072-.438 2.08-.875 2.845-1.35.29-.18 2.952-.765 3.025-1.13.037-.4-2.88-.765-2.77-1.166.4-1.968 1.35-3.973 2.88-5.613 1.786-1.896 4.447-3.28 7.946-3.28 3.718 0 6.38 2.113 7.108 5.394l-5.176 2.406c-.364-1.53-1.385-2.26-2.697-2.26-1.166 0-2.114.51-2.843 1.276-.51.583-.91 1.312-1.166 2.077-.145.547 3.318.584 3.318 1.167 0 .22-3.572.984-3.536 1.166.073.51-2.734.948-2.515 1.313.255.4 3.536.73 3.9.947.4.183.84.292 1.313.292 1.312 0 2.405-.693 3.353-1.932l3.973 3.39c-1.713 2.442-4.228 4.046-7.91 4.046-4.046 0-7.035-2.187-7.946-5.796zm20.23.328l-1.567-.947 2.15-1.348 2.662-1.203-2.078-1.167 2.15-8.603h5.87l-2.15 8.603 2.077 1.166s-2.115.8-2.698 1.202c-.11.437-2.005.91-2.114 1.35-.11.4 1.604.764 1.567.946-.037.073-.037.11-.037.11h7.983l-1.35 5.358h-13.85l1.385-5.468zm17.28.037l-2.735-.948 3.317-1.312 3.244-1.167-2.66-1.166 2.15-8.53h5.796l-2.15 8.53 2.66 1.166-3.244 1.167-3.28 1.312 2.697.948-1.35 5.43h-5.795l1.35-5.43z" fill="#232F42" mask="url(#b)"/><path d="M3.09 17.645l-2.733-.948 3.318-1.312 3.244-1.167-2.662-1.166 2.15-8.53h5.796l-2.15 8.53 2.66 1.166-3.244 1.167-3.28 1.312 2.697.948-1.35 5.43H1.744l1.348-5.43zm13.525-.073l-2.15-.948 2.733-1.312 2.66-1.203-2.077-1.167.84-3.318h-5.176l1.75-5.322h16.585l-2.152 5.322h-5.14l-.838 3.318 2.078 1.166-2.697 1.202-2.697 1.312 2.15.948-1.384 5.504h-5.87l1.385-5.504zM32.112 17.28c-.073-.29-3.062-.62-3.1-.947-.07-.438 2.08-.875 2.845-1.35.29-.18 2.952-.765 3.025-1.13.037-.4-2.88-.765-2.77-1.166.4-1.968 1.35-3.973 2.88-5.613 1.786-1.896 4.447-3.28 7.946-3.28 3.718 0 6.38 2.113 7.108 5.394l-5.176 2.406c-.364-1.53-1.385-2.26-2.697-2.26-1.167 0-2.115.51-2.844 1.276-.51.583-.912 1.312-1.167 2.077-.146.547 3.317.584 3.317 1.167 0 .22-3.572.984-3.536 1.166.073.51-2.734.948-2.515 1.313.254.4 3.535.73 3.9.947.4.183.838.292 1.312.292 1.312 0 2.405-.693 3.353-1.932l3.974 3.39c-1.715 2.442-4.23 4.046-7.912 4.046-4.046 0-7.035-2.187-7.946-5.796zM50.232 19.868l1.75-2.296.802-.984.656-.84c1.932 1.715 3.9 2.553 5.65 2.553.73 0 1.24-.29 1.24-.8 0-.365-4.703-.584-5.396-.912-.437-.22.328-.365.62-.583.583-.4.583-.33.948-.693.62-.62 2.55-.73 2.04-1.167-.4-.328-4.738-.692-4.993-1.13-.402-.62-.584-1.385-.584-2.296 0-1.532.583-2.917 1.604-4.01 1.312-1.422 3.39-2.297 5.978-2.297 2.99 0 5.687 1.02 7.51 2.697l-2.844 4.484c-1.276-1.094-3.463-2.37-5.25-2.37-.728 0-1.202.183-1.202.693 0 .547.328.656 2.66 1.567 1.167.474 2.152.948 2.917 1.53.436.33 3.644.694 3.936 1.13.22.33-1.97.913-2.333 1.168-.62.4-2.698.838-2.698 1.35 0 .29 2.844.545 2.844.837-.184 1.275-.694 2.44-1.57 3.39-1.275 1.348-3.352 2.223-6.013 2.223-3.354 0-6.234-1.276-8.275-3.245zm18.773 0l1.75-2.296.802-.984.656-.84c1.932 1.715 3.9 2.553 5.65 2.553.73 0 1.24-.29 1.24-.8 0-.365-4.703-.584-5.396-.912-.437-.22.328-.365.62-.583.583-.4.583-.33.948-.693.62-.62 2.55-.73 2.04-1.167-.4-.328-4.738-.692-4.993-1.13-.4-.62-.583-1.385-.583-2.296 0-1.532.582-2.917 1.603-4.01 1.312-1.422 3.39-2.297 5.978-2.297 2.99 0 5.687 1.02 7.51 2.697l-2.843 4.484c-1.276-1.094-3.463-2.37-5.25-2.37-.728 0-1.202.183-1.202.693 0 .547.328.656 2.66 1.567 1.167.474 2.15.948 2.917 1.53.437.33 3.645.694 3.937 1.13.217.33-1.97.913-2.334 1.168-.62.4-2.698.838-2.698 1.35 0 .29 2.843.545 2.843.837-.18 1.275-.69 2.44-1.566 3.39-1.276 1.348-3.354 2.223-6.015 2.223-3.354 0-6.234-1.276-8.275-3.245z" fill="#FFF" mask="url(#b)"/></g></svg>
