<svg class="logo" width="154" height="21" viewBox="0 0 154 21" xmlns="http://www.w3.org/2000/svg" xmlns:xlink="http://www.w3.org/1999/xlink"><defs><path id="a" d="M159 26V0H0v26h159z"/></defs><g transform="translate(0 -3)" fill="none" fill-rule="evenodd"><mask id="b" fill="#fff"><use xlink:href="#a"/></mask><path class="logo__cli" d="M91.06 17.6l-2.7-.9 3.276-1.332 3.24-1.188-2.664-1.152 2.124-8.532h6.156c3.348 0 5.472.972 6.768 2.376 1.296 1.404 1.872 3.204 1.872 5.436v.72c-.036.396 2.844.792 2.808 1.152-.072.396-2.88 1.008-3.24 1.188-.576.36-3.204.9-3.42 1.332-.144.288 2.664.612 2.484.9-.396.72-.9 1.404-1.476 2.016-2.052 2.232-5.076 3.42-9.072 3.42h-7.524L91.06 17.6zm8.676-7.704h-.972l-.756 3.132 2.628 1.152-3.24 1.188-3.24 1.332 2.7.936h1.008c1.368 0-.036-.324-.036-.936-.036-.432 2.412-.72 2.7-.828.396-.108 1.44-.252 2.052-.504.36-.144 3.312-.756 3.456-1.188.072-.36-2.628-.792-2.772-1.08-.036-.036 0-.108 0-.144 0-1.008-.288-1.656-.72-2.124-.54-.576-1.404-.936-2.808-.936zm31.732 2.592c0 .144 0 .324-.036.468 0 .396 2.808.756 2.736 1.116-.036.396-2.952.792-3.06 1.152-.108.432-3.096.864-3.24 1.26-.144.324 2.592.612 2.448.9-.468.936-1.08 1.764-1.764 2.52-1.728 1.872-4.176 3.06-6.912 3.06-3.96 0-6.912-2.304-7.92-5.58-.072-.288-2.988-.576-3.06-.9-.072-.396 2.736-.828 2.7-1.26 0-.108 1.152-.468 1.26-.504.324-.216 1.584-.36 1.62-.648 0-.36-2.772-.756-2.7-1.116.36-2.088 1.332-3.996 2.736-5.472 1.728-1.872 4.14-3.06 6.912-3.06 4.896 0 8.28 3.492 8.28 8.064zm-8.064 4.932c.396-.216-2.052-.468-1.728-.828.324-.36 3.456-.792 3.672-1.26.18-.396 3.168-.828 3.24-1.26.072-.324-2.736-.684-2.736-1.044 0-1.872-1.044-3.348-3.06-3.348-1.008 0-1.836.432-2.484 1.116-.54.576-.936 1.332-1.188 2.16-.072.36 2.7.756 2.7 1.116-.036.108-.612.18-1.332.432-.252.108-1.224.54-1.44.72-.576.432-2.592.9-2.34 1.26.252.396 3.42.684 3.852.9.396.216.9.324 1.476.324.504 0 .936-.108 1.368-.288zm12.544-.144c-.072-.288-3.024-.612-3.06-.936-.072-.432 2.052-.864 2.808-1.332.288-.18 2.916-.756 2.988-1.116.036-.396-2.844-.756-2.736-1.152.396-1.944 1.332-3.924 2.844-5.544 1.764-1.872 4.392-3.24 7.848-3.24 3.672 0 6.3 2.088 7.02 5.328l-5.112 2.376c-.36-1.512-1.368-2.232-2.664-2.232-1.152 0-2.088.504-2.808 1.26-.504.576-.9 1.296-1.152 2.052-.144.54 3.276.576 3.276 1.152 0 .216-3.528.972-3.492 1.152.072.504-2.7.936-2.484 1.296.252.396 3.492.72 3.852.936.396.18.828.288 1.296.288 1.296 0 2.376-.684 3.312-1.908l3.924 3.348c-1.692 2.412-4.176 3.996-7.812 3.996-3.996 0-6.948-2.16-7.848-5.724z" fill="#232F42" mask="url(#b)"/><path d="M3.09 17.645l-2.733-.948 3.318-1.312 3.244-1.167-2.662-1.166 2.15-8.53h5.796l-2.15 8.53 2.66 1.166-3.244 1.167-3.28 1.312 2.697.948-1.35 5.43H1.744l1.348-5.43zm13.525-.073l-2.15-.948 2.733-1.312 2.66-1.203-2.077-1.167.84-3.318h-5.176l1.75-5.322h16.585l-2.152 5.322h-5.14l-.838 3.318 2.078 1.166-2.697 1.202-2.697 1.312 2.15.948-1.384 5.504h-5.87l1.385-5.504zM32.112 17.28c-.073-.29-3.062-.62-3.1-.947-.07-.438 2.08-.875 2.845-1.35.29-.18 2.952-.765 3.025-1.13.037-.4-2.88-.765-2.77-1.166.4-1.968 1.35-3.973 2.88-5.613 1.786-1.896 4.447-3.28 7.946-3.28 3.718 0 6.38 2.113 7.108 5.394l-5.176 2.406c-.364-1.53-1.385-2.26-2.697-2.26-1.167 0-2.115.51-2.844 1.276-.51.583-.912 1.312-1.167 2.077-.146.547 3.317.584 3.317 1.167 0 .22-3.572.984-3.536 1.166.073.51-2.734.948-2.515 1.313.254.4 3.535.73 3.9.947.4.183.838.292 1.312.292 1.312 0 2.405-.693 3.353-1.932l3.974 3.39c-1.715 2.442-4.23 4.046-7.912 4.046-4.046 0-7.035-2.187-7.946-5.796zM50.232 19.868l1.75-2.296.802-.984.656-.84c1.932 1.715 3.9 2.553 5.65 2.553.73 0 1.24-.29 1.24-.8 0-.365-4.703-.584-5.396-.912-.437-.22.328-.365.62-.583.583-.4.583-.33.948-.693.62-.62 2.55-.73 2.04-1.167-.4-.328-4.738-.692-4.993-1.13-.402-.62-.584-1.385-.584-2.296 0-1.532.583-2.917 1.604-4.01 1.312-1.422 3.39-2.297 5.978-2.297 2.99 0 5.687 1.02 7.51 2.697l-2.844 4.484c-1.276-1.094-3.463-2.37-5.25-2.37-.728 0-1.202.183-1.202.693 0 .547.328.656 2.66 1.567 1.167.474 2.152.948 2.917 1.53.436.33 3.644.694 3.936 1.13.22.33-1.97.913-2.333 1.168-.62.4-2.698.838-2.698 1.35 0 .29 2.844.545 2.844.837-.184 1.275-.694 2.44-1.57 3.39-1.275 1.348-3.352 2.223-6.013 2.223-3.354 0-6.234-1.276-8.275-3.245zm18.773 0l1.75-2.296.802-.984.656-.84c1.932 1.715 3.9 2.553 5.65 2.553.73 0 1.24-.29 1.24-.8 0-.365-4.703-.584-5.396-.912-.437-.22.328-.365.62-.583.583-.4.583-.33.948-.693.62-.62 2.55-.73 2.04-1.167-.4-.328-4.738-.692-4.993-1.13-.4-.62-.583-1.385-.583-2.296 0-1.532.582-2.917 1.603-4.01 1.312-1.422 3.39-2.297 5.978-2.297 2.99 0 5.687 1.02 7.51 2.697l-2.843 4.484c-1.276-1.094-3.463-2.37-5.25-2.37-.728 0-1.202.183-1.202.693 0 .547.328.656 2.66 1.567 1.167.474 2.15.948 2.917 1.53.437.33 3.645.694 3.937 1.13.217.33-1.97.913-2.334 1.168-.62.4-2.698.838-2.698 1.35 0 .29 2.843.545 2.843.837-.18 1.275-.69 2.44-1.566 3.39-1.276 1.348-3.354 2.223-6.015 2.223-3.354 0-6.234-1.276-8.275-3.245z" fill="#FFF" mask="url(#b)"/></g></svg>
